# xmcd
#
# Track frame offsets:
#	150
#	13435
#	28054
#	44935
#	57764
#	69155
#	80916
#	94586
#	103618
#	117841
#	130235
#	145304
#	161242
#	172980
#	188817
#	197668
#	208725
#	221844
#
# Disc length: 3106 seconds
#
# Revision: 1
# Processed by: cddbd v1.5.2PL0 Copyright (c) Steve Scherf et al.
# Submitted via: audiograbber 1.83.01
#
DISCID=130c2012
DTITLE=Diverse Artister - Norske Country Jenter
DYEAR=2001
DGENRE=Country
TTITLE0=Lillian Askeland - Kvinnehud
TTITLE1=Anita Nordhagen and 2+2+2 - Jeg Kjenner En Som Tror At Han Er Elvis
TTITLE2=Kristin Berglund - Money Honey
TTITLE3=Anne Engh and Country Snakes - One Of These Days
TTITLE4=Rita Engebretsen - Ekte Texas-Skreppe
TTITLE5=Inger Lise Rypdal - Anna
TTITLE6=Lillian Askeland - Arven
TTITLE7=Gro Anita Schønn - Bare Du Synes Om Meg
TTITLE8=Laila Holm and 2+2+2 - Takk Til Alle Som Drømmer
TTITLE9=Mona Grytøyr - Hit Me With Your Best Shot
TTITLE10=Anne Egh and Country Snakes - En Sang Om Frihet
TTITLE11=Bente Lind - Driver Dugg, Faller Regn
TTITLE12=Gro Anita Schønn - Bli Hos Din Mann
TTITLE13=Lillian Askeland - Datteren
TTITLE14=Anne Kristin Sagmo - Friends Forever
TTITLE15=Anne Engh and Country Snakes - Morgendagens Kvinne
TTITLE16=Lillian Askeland - Janne
TTITLE17=Anne Mette Torp - Paper Roses
EXTD=2001 Evigo Lisensiert fra TVA A/S
EXTT0=
EXTT1=
EXTT2=
EXTT3=
EXTT4=
EXTT5=
EXTT6=
EXTT7=
EXTT8=
EXTT9=
EXTT10=
EXTT11=
EXTT12=
EXTT13=
EXTT14=
EXTT15=
EXTT16=
EXTT17=
PLAYORDER=
